<mxfile host="Electron" agent="Mozilla/5.0 (Windows NT 10.0; Win64; x64) AppleWebKit/537.36 (KHTML, like Gecko) draw.io/24.7.17 Chrome/128.0.6613.36 Electron/32.0.1 Safari/537.36" version="24.7.17">
  <diagram name="Страница — 1" id="7QucInwPDRfKzfGEuZCY">
    <mxGraphModel dx="1615" dy="955" grid="1" gridSize="10" guides="1" tooltips="1" connect="1" arrows="1" fold="1" page="1" pageScale="1" pageWidth="827" pageHeight="1169" math="0" shadow="0">
      <root>
        <mxCell id="0" />
        <mxCell id="1" parent="0" />
        <mxCell id="vyoDU7aED_gjBHzTh8sb-5" style="edgeStyle=orthogonalEdgeStyle;rounded=0;orthogonalLoop=1;jettySize=auto;html=1;exitX=0.5;exitY=1;exitDx=0;exitDy=0;entryX=0.5;entryY=0;entryDx=0;entryDy=0;" edge="1" parent="1" source="vyoDU7aED_gjBHzTh8sb-1" target="vyoDU7aED_gjBHzTh8sb-4">
          <mxGeometry relative="1" as="geometry" />
        </mxCell>
        <mxCell id="vyoDU7aED_gjBHzTh8sb-6" style="edgeStyle=orthogonalEdgeStyle;rounded=0;orthogonalLoop=1;jettySize=auto;html=1;exitX=0.5;exitY=1;exitDx=0;exitDy=0;entryX=0.5;entryY=0;entryDx=0;entryDy=0;" edge="1" parent="1" source="vyoDU7aED_gjBHzTh8sb-1" target="vyoDU7aED_gjBHzTh8sb-3">
          <mxGeometry relative="1" as="geometry" />
        </mxCell>
        <mxCell id="vyoDU7aED_gjBHzTh8sb-1" value="Источник деталей" style="rounded=0;whiteSpace=wrap;html=1;" vertex="1" parent="1">
          <mxGeometry x="280" y="160" width="160" height="80" as="geometry" />
        </mxCell>
        <mxCell id="vyoDU7aED_gjBHzTh8sb-8" style="edgeStyle=orthogonalEdgeStyle;rounded=0;orthogonalLoop=1;jettySize=auto;html=1;exitX=0.5;exitY=1;exitDx=0;exitDy=0;entryX=0;entryY=0.5;entryDx=0;entryDy=0;" edge="1" parent="1" source="vyoDU7aED_gjBHzTh8sb-3" target="vyoDU7aED_gjBHzTh8sb-12">
          <mxGeometry relative="1" as="geometry">
            <mxPoint x="360" y="480" as="targetPoint" />
          </mxGeometry>
        </mxCell>
        <mxCell id="vyoDU7aED_gjBHzTh8sb-3" value="Станок 1" style="rounded=0;whiteSpace=wrap;html=1;" vertex="1" parent="1">
          <mxGeometry x="160" y="320" width="160" height="80" as="geometry" />
        </mxCell>
        <mxCell id="vyoDU7aED_gjBHzTh8sb-9" style="edgeStyle=orthogonalEdgeStyle;rounded=0;orthogonalLoop=1;jettySize=auto;html=1;exitX=0.5;exitY=1;exitDx=0;exitDy=0;entryX=0;entryY=0.5;entryDx=0;entryDy=0;" edge="1" parent="1" source="vyoDU7aED_gjBHzTh8sb-4" target="vyoDU7aED_gjBHzTh8sb-12">
          <mxGeometry relative="1" as="geometry">
            <mxPoint x="360" y="480" as="targetPoint" />
          </mxGeometry>
        </mxCell>
        <mxCell id="vyoDU7aED_gjBHzTh8sb-4" value="Станок 2" style="rounded=0;whiteSpace=wrap;html=1;" vertex="1" parent="1">
          <mxGeometry x="400" y="320" width="160" height="80" as="geometry" />
        </mxCell>
        <mxCell id="vyoDU7aED_gjBHzTh8sb-16" style="edgeStyle=orthogonalEdgeStyle;rounded=0;orthogonalLoop=1;jettySize=auto;html=1;exitX=0.5;exitY=1;exitDx=0;exitDy=0;entryX=0;entryY=0.5;entryDx=0;entryDy=0;" edge="1" parent="1" source="vyoDU7aED_gjBHzTh8sb-10" target="vyoDU7aED_gjBHzTh8sb-15">
          <mxGeometry relative="1" as="geometry" />
        </mxCell>
        <mxCell id="vyoDU7aED_gjBHzTh8sb-27" style="edgeStyle=orthogonalEdgeStyle;rounded=0;orthogonalLoop=1;jettySize=auto;html=1;exitX=0;exitY=0.5;exitDx=0;exitDy=0;entryX=0;entryY=0.5;entryDx=0;entryDy=0;fillColor=#a20025;strokeColor=#6F0000;" edge="1" parent="1" source="vyoDU7aED_gjBHzTh8sb-10" target="vyoDU7aED_gjBHzTh8sb-26">
          <mxGeometry relative="1" as="geometry">
            <Array as="points">
              <mxPoint x="240" y="680" />
              <mxPoint x="240" y="1400" />
            </Array>
          </mxGeometry>
        </mxCell>
        <mxCell id="vyoDU7aED_gjBHzTh8sb-10" value="Транспортировщик" style="rounded=0;whiteSpace=wrap;html=1;" vertex="1" parent="1">
          <mxGeometry x="280" y="640" width="160" height="80" as="geometry" />
        </mxCell>
        <mxCell id="vyoDU7aED_gjBHzTh8sb-14" style="edgeStyle=orthogonalEdgeStyle;rounded=0;orthogonalLoop=1;jettySize=auto;html=1;exitX=0.5;exitY=1;exitDx=0;exitDy=0;entryX=0.5;entryY=0;entryDx=0;entryDy=0;" edge="1" parent="1" source="vyoDU7aED_gjBHzTh8sb-12" target="vyoDU7aED_gjBHzTh8sb-10">
          <mxGeometry relative="1" as="geometry" />
        </mxCell>
        <mxCell id="vyoDU7aED_gjBHzTh8sb-12" value="Накопитель" style="rounded=0;whiteSpace=wrap;html=1;" vertex="1" parent="1">
          <mxGeometry x="560" y="480" width="160" height="80" as="geometry" />
        </mxCell>
        <mxCell id="vyoDU7aED_gjBHzTh8sb-21" style="edgeStyle=orthogonalEdgeStyle;rounded=0;orthogonalLoop=1;jettySize=auto;html=1;exitX=0.5;exitY=1;exitDx=0;exitDy=0;entryX=0;entryY=0.5;entryDx=0;entryDy=0;" edge="1" parent="1" source="vyoDU7aED_gjBHzTh8sb-13" target="vyoDU7aED_gjBHzTh8sb-20">
          <mxGeometry relative="1" as="geometry" />
        </mxCell>
        <mxCell id="vyoDU7aED_gjBHzTh8sb-13" value="Сборщик" style="rounded=0;whiteSpace=wrap;html=1;" vertex="1" parent="1">
          <mxGeometry x="280" y="880" width="160" height="80" as="geometry" />
        </mxCell>
        <mxCell id="vyoDU7aED_gjBHzTh8sb-17" style="edgeStyle=orthogonalEdgeStyle;rounded=0;orthogonalLoop=1;jettySize=auto;html=1;exitX=0.5;exitY=1;exitDx=0;exitDy=0;entryX=0.5;entryY=0;entryDx=0;entryDy=0;" edge="1" parent="1" source="vyoDU7aED_gjBHzTh8sb-15" target="vyoDU7aED_gjBHzTh8sb-13">
          <mxGeometry relative="1" as="geometry" />
        </mxCell>
        <mxCell id="vyoDU7aED_gjBHzTh8sb-15" value="Технологический модуль" style="rounded=0;whiteSpace=wrap;html=1;" vertex="1" parent="1">
          <mxGeometry x="560" y="720" width="160" height="80" as="geometry" />
        </mxCell>
        <mxCell id="vyoDU7aED_gjBHzTh8sb-24" style="edgeStyle=orthogonalEdgeStyle;rounded=0;orthogonalLoop=1;jettySize=auto;html=1;exitX=0.5;exitY=1;exitDx=0;exitDy=0;entryX=0;entryY=0.5;entryDx=0;entryDy=0;" edge="1" parent="1" source="vyoDU7aED_gjBHzTh8sb-18" target="vyoDU7aED_gjBHzTh8sb-23">
          <mxGeometry relative="1" as="geometry" />
        </mxCell>
        <mxCell id="vyoDU7aED_gjBHzTh8sb-18" value="Комплектовщик" style="rounded=0;whiteSpace=wrap;html=1;" vertex="1" parent="1">
          <mxGeometry x="280" y="1120" width="160" height="80" as="geometry" />
        </mxCell>
        <mxCell id="vyoDU7aED_gjBHzTh8sb-22" style="edgeStyle=orthogonalEdgeStyle;rounded=0;orthogonalLoop=1;jettySize=auto;html=1;exitX=0.5;exitY=1;exitDx=0;exitDy=0;entryX=0.5;entryY=0;entryDx=0;entryDy=0;" edge="1" parent="1" source="vyoDU7aED_gjBHzTh8sb-20" target="vyoDU7aED_gjBHzTh8sb-18">
          <mxGeometry relative="1" as="geometry" />
        </mxCell>
        <mxCell id="vyoDU7aED_gjBHzTh8sb-20" value="Изделия" style="rounded=0;whiteSpace=wrap;html=1;" vertex="1" parent="1">
          <mxGeometry x="560" y="960" width="160" height="80" as="geometry" />
        </mxCell>
        <mxCell id="vyoDU7aED_gjBHzTh8sb-25" style="edgeStyle=orthogonalEdgeStyle;rounded=0;orthogonalLoop=1;jettySize=auto;html=1;exitX=1;exitY=0.5;exitDx=0;exitDy=0;entryX=1;entryY=0.5;entryDx=0;entryDy=0;fillColor=#a20025;strokeColor=#6F0000;" edge="1" parent="1" source="vyoDU7aED_gjBHzTh8sb-23" target="vyoDU7aED_gjBHzTh8sb-10">
          <mxGeometry relative="1" as="geometry">
            <Array as="points">
              <mxPoint x="760" y="1280" />
              <mxPoint x="760" y="680" />
            </Array>
          </mxGeometry>
        </mxCell>
        <mxCell id="vyoDU7aED_gjBHzTh8sb-23" value="Партии изделий" style="rounded=0;whiteSpace=wrap;html=1;" vertex="1" parent="1">
          <mxGeometry x="560" y="1240" width="160" height="80" as="geometry" />
        </mxCell>
        <mxCell id="vyoDU7aED_gjBHzTh8sb-26" value="Склад" style="rounded=0;whiteSpace=wrap;html=1;" vertex="1" parent="1">
          <mxGeometry x="560" y="1360" width="160" height="80" as="geometry" />
        </mxCell>
      </root>
    </mxGraphModel>
  </diagram>
</mxfile>
